<svg id="Layer_1" data-name="Layer 1" xmlns="http://www.w3.org/2000/svg" viewBox="0 0 67 67"><defs><style>.cls-1{fill:#fff200;}.cls-2,.cls-3{fill:#fff;}.cls-3{stroke:#fff;stroke-miterlimit:10;stroke-width:0.5px;}</style></defs><title>next</title><circle class="cls-1" cx="33.5" cy="33.5" r="33.5"/><polygon class="cls-2" points="37.51 33.5 20.11 43.55 20.11 23.45 37.51 33.5"/><path class="cls-2" d="M466.78,243.42l-17.4,10,1.88,1.08v-20.1l-1.88,1.08,17.4,10a1.25,1.25,0,0,0,1.26-2.16l-17.4-10a1.26,1.26,0,0,0-1.88,1.08v20.1a1.26,1.26,0,0,0,1.88,1.08l17.4-10A1.25,1.25,0,0,0,466.78,243.42Z" transform="translate(-429.91 -211)"/><rect class="cls-3" x="42.05" y="21.69" width="4.76" height="23.63" rx="1" ry="1"/></svg>