<svg id="Layer_1" data-name="Layer 1" xmlns="http://www.w3.org/2000/svg" viewBox="0 0 67 67"><defs><style>.cls-1{fill:#fff200;}.cls-2,.cls-3{fill:#fff;}.cls-3{stroke:#fff;stroke-miterlimit:10;stroke-width:0.5px;}</style></defs><title>prev</title><circle class="cls-1" cx="33.5" cy="33.5" r="33.5"/><polygon class="cls-2" points="29.49 33.5 46.9 43.55 46.9 23.45 29.49 33.5"/><path class="cls-2" d="M307.79,245.58l17.4,10a1.26,1.26,0,0,0,1.88-1.08v-20.1a1.26,1.26,0,0,0-1.88-1.08l-17.4,10a1.25,1.25,0,0,0,1.26,2.16l17.4-10-1.88-1.08v20.1l1.88-1.08-17.4-10A1.25,1.25,0,0,0,307.79,245.58Z" transform="translate(-278.93 -211)"/><rect class="cls-3" x="299.11" y="232.69" width="4.76" height="23.63" rx="1" ry="1" transform="translate(324.06 278) rotate(-180)"/></svg>